<svg width="21" height="17" viewBox="0 0 21 17" fill="none" xmlns="http://www.w3.org/2000/svg">
<path d="M20.7517 4.56312C19.9844 1.80944 17.3829 -0.416797 14.3117 0.0675673C12.5472 0.345759 11.4606 1.38933 10.8023 2.36795C10.144 1.38792 9.05747 0.344347 7.29293 0.0661551C4.22169 -0.416798 1.62024 1.81156 0.853664 4.56312C0.335343 6.41938 0.642679 8.7127 1.61462 10.3261C2.64211 12.0348 4.27514 13.1362 5.93559 14.0372C7.06085 14.6479 8.24096 15.1344 9.33667 15.8066C9.74866 16.0611 10.1442 16.3415 10.521 16.6461C10.6152 16.7217 10.7081 16.8 10.8023 16.8791C10.8937 16.8 10.9866 16.7217 11.0801 16.6461C11.458 16.3413 11.8547 16.0609 12.268 15.8066C13.363 15.1344 14.5438 14.6479 15.6683 14.0372C17.3295 13.1362 18.9625 12.0348 19.99 10.3261C20.9598 8.7127 21.2693 6.41938 20.7517 4.56312Z" fill="#444444"/>
<path d="M19.8781 4.86913C19.1775 2.33285 16.8022 0.282368 13.9978 0.728493C12.3866 0.984722 11.3944 1.94591 10.7934 2.84726C10.1923 1.94461 9.20014 0.983421 7.58894 0.727192C4.78458 0.282368 2.4092 2.3348 1.70923 4.86913C1.23595 6.57885 1.51658 8.69111 2.40406 10.1771C3.34227 11.7509 4.83339 12.7654 6.34955 13.5952C7.37702 14.1578 8.45459 14.6058 9.45509 15.225C9.83127 15.4594 10.1925 15.7177 10.5365 15.9982C10.6226 16.0678 10.7073 16.14 10.7934 16.2128C10.8769 16.14 10.9616 16.0678 11.047 15.9982C11.3921 15.7175 11.7543 15.4592 12.1316 15.225C13.1315 14.6058 14.2097 14.1578 15.2365 13.5952C16.7533 12.7654 18.2445 11.7509 19.1827 10.1771C20.0682 8.69111 20.3508 6.57885 19.8781 4.86913Z" fill="#DF6007"/>
<g style="mix-blend-mode:multiply" opacity="0.5">
<path d="M19.8782 4.86916C19.7908 4.55503 19.6785 4.24859 19.5423 3.95285C19.5423 3.96586 19.5481 3.97886 19.5507 3.99187C19.6843 4.67604 19.6982 5.37867 19.5918 6.06772C19.4722 6.86564 19.1674 7.62345 18.7023 8.27883C18.2351 8.90196 17.6503 9.42496 16.982 9.81751C15.5692 10.6707 13.9163 11.0928 12.2941 11.2827C10.7294 11.462 9.1475 11.4182 7.59473 11.1526C6.05737 10.8925 4.49562 10.3846 3.2999 9.33172C2.3805 8.53208 1.74529 7.44928 1.49155 6.24916C1.42155 7.6233 1.74841 9.07288 2.40407 10.1771C3.34228 11.7509 4.8334 12.7654 6.34956 13.5953C7.37703 14.1578 8.4546 14.6059 9.4551 15.225C9.83128 15.4594 10.1925 15.7177 10.5365 15.9982C10.6226 16.0678 10.7073 16.14 10.7934 16.2128C10.8769 16.14 10.9616 16.0678 11.047 15.9982C11.3921 15.7175 11.7543 15.4593 12.1317 15.225C13.1315 14.6059 14.2097 14.1578 15.2366 13.5953C16.7534 12.7654 18.2445 11.7509 19.1827 10.1771C20.0682 8.69114 20.3508 6.57888 19.8782 4.86916Z" fill="#DF3B07"/>
</g>
<g style="mix-blend-mode:multiply">
<path d="M19.8781 4.86915C19.7128 4.27442 19.4585 3.70881 19.1242 3.19196C19.3457 3.64881 19.5078 4.13277 19.6065 4.63178C19.9648 6.46961 19.6065 8.67422 18.4756 10.1394C16.1561 13.1368 11.8465 14.7216 9.76909 14.3093C5.93277 13.5484 3.39555 11.5389 2.0881 9.55477L2.07718 9.53721C2.17323 9.75703 2.28238 9.97073 2.40404 10.1771C3.34225 11.7509 4.83337 12.7654 6.34954 13.5953C7.37701 14.1578 8.45457 14.6059 9.45507 15.225C9.83126 15.4594 10.1924 15.7177 10.5365 15.9982C10.6225 16.0678 10.7073 16.14 10.7934 16.2128C10.8768 16.14 10.9616 16.0678 11.047 15.9982C11.392 15.7175 11.7543 15.4592 12.1316 15.225C13.1315 14.6059 14.2097 14.1578 15.2365 13.5953C16.7533 12.7654 18.2445 11.7509 19.1827 10.1771C20.0682 8.69113 20.3508 6.57886 19.8781 4.86915Z" fill="#D60637"/>
</g>
<g style="mix-blend-mode:color-dodge">
<path d="M9.65607 3.21018C9.65607 3.21018 8.1733 1.10181 5.46335 1.5811C2.75339 2.0604 1.42217 5.86222 3.12585 7.68249C4.82952 9.50276 11.8009 6.05341 9.65607 3.21018Z" fill="#AF1E14"/>
</g>
<g style="mix-blend-mode:color-dodge" opacity="0.5">
<path d="M7.80531 2.80627C7.66917 2.31918 7.15094 2.01808 6.65646 2.00182C6.0762 1.98713 5.50095 2.11381 4.97912 2.3712C4.70266 2.50667 4.447 2.6819 4.22007 2.89147C3.80651 3.29467 3.32489 4.21684 3.8611 4.70783C4.42171 5.22029 5.18076 5.05381 5.84669 4.8379C6.6006 4.60313 8.08016 3.79477 7.80531 2.80627Z" fill="white"/>
</g>
<g style="mix-blend-mode:color-dodge" opacity="0.5">
<path d="M3.63375 4.96932C3.32487 4.83535 2.99158 5.05191 2.79893 5.37448C2.58766 5.73346 2.69426 6.49369 3.13864 6.64522C3.59779 6.80325 3.93429 6.32005 4.0608 5.94091C4.18731 5.56177 4.02548 4.98428 3.63375 4.96932Z" fill="white"/>
</g>
</svg>
